<svg xmlns="http://www.w3.org/2000/svg" width="32" height="32" viewBox="0 0 32 32" fill="none">
	<link xmlns="" type="text/css" rel="stylesheet" id="dark-mode-custom-link" />
	<link xmlns="" type="text/css" rel="stylesheet" id="dark-mode-general-link" />
	<style xmlns="" lang="en" type="text/css" id="dark-mode-custom-style" />
	<style xmlns="" lang="en" type="text/css" id="dark-mode-native-style" />
	<style xmlns="" lang="en" type="text/css" id="dark-mode-native-sheet" />
	<path fill-rule="evenodd" clip-rule="evenodd"
		d="M8.75945 12.2405C8.93483 11.1292 9.45672 9.70541 10.4121 8.47044C11.5884 6.94982 13.3903 5.75 16.004 5.75C18.6176 5.75 20.4195 6.94982 21.5958 8.47044C22.5512 9.70542 23.0731 11.1293 23.2485 12.2405C22.8273 12.1649 22.3892 12.125 21.9394 12.125H21.9375V14.125H21.9414V19.5987L21.9394 19.5987L21.938 19.5987L21.9375 21.5987H21.9394C22.2909 21.5987 22.6352 21.5744 22.9699 21.5277C22.4056 22.6942 21.1261 23.8801 18.9706 24.3074C18.9627 23.9691 18.6859 23.6973 18.3457 23.6973H13.6582C13.313 23.6973 13.0332 23.9771 13.0332 24.3223V26.6249C13.0332 26.9701 13.313 27.2499 13.6582 27.2499H18.3457C18.6909 27.2499 18.9707 26.9701 18.9707 26.6249V26.335C22.7105 25.7325 24.9416 23.2595 25.2717 20.783C26.8441 19.9308 27.877 18.4926 27.877 16.8619C27.877 15.2465 26.8634 13.82 25.316 12.965C25.2957 11.3587 24.6219 9.11354 23.1778 7.24671C21.6822 5.31335 19.3278 3.75 16.004 3.75C12.6801 3.75 10.3257 5.31335 8.83014 7.24671C7.38603 9.11352 6.7122 11.3586 6.69188 12.965C5.14443 13.82 4.13086 15.2465 4.13086 16.8619C4.13086 18.7661 5.53924 20.4078 7.57031 21.1604C8.32966 21.4417 9.17603 21.5987 10.0684 21.5987H10.0703V19.5987H10.0667V14.125H10.0703L10.0703 12.125H10.0684C9.61865 12.125 9.18058 12.1649 8.75945 12.2405ZM8.06672 19.2198C6.77794 18.6729 6.13086 17.6423 6.13086 16.8619C6.13086 16.0815 6.77794 15.0509 8.06672 14.5039V19.2198ZM23.9414 14.504V19.2197C25.23 18.6727 25.877 17.6422 25.877 16.8619C25.877 16.0815 25.23 15.051 23.9414 14.504Z"
		fill="black" />
</svg>