<svg xmlns="http://www.w3.org/2000/svg" width="32" height="32" viewBox="0 0 32 32" fill="none">
	<link xmlns="" type="text/css" rel="stylesheet" id="dark-mode-custom-link" />
	<link xmlns="" type="text/css" rel="stylesheet" id="dark-mode-general-link" />
	<style xmlns="" lang="en" type="text/css" id="dark-mode-custom-style" />
	<style xmlns="" lang="en" type="text/css" id="dark-mode-native-style" />
	<style xmlns="" lang="en" type="text/css" id="dark-mode-native-sheet" />
	<path fill-rule="evenodd" clip-rule="evenodd"
		d="M16 18.8105C18.5888 18.8105 20.6875 16.7119 20.6875 14.123C20.6875 11.5342 18.5888 9.43555 16 9.43555C13.4112 9.43555 11.3125 11.5342 11.3125 14.123C11.3125 16.7119 13.4112 18.8105 16 18.8105ZM16 16.8105C17.4843 16.8105 18.6875 15.6073 18.6875 14.123C18.6875 12.6388 17.4843 11.4355 16 11.4355C14.5157 11.4355 13.3125 12.6388 13.3125 14.123C13.3125 15.6073 14.5157 16.8105 16 16.8105Z"
		fill="#141414" />
	<path fill-rule="evenodd" clip-rule="evenodd"
		d="M21.7818 25.6525C25.0578 23.686 27.25 20.099 27.25 16C27.25 9.7868 22.2132 4.75 16 4.75C9.7868 4.75 4.75 9.7868 4.75 16C4.75 19.533 6.37862 22.6857 8.92607 24.7482C8.92565 24.7494 8.92523 24.7505 8.9248 24.7517C9.46513 25.189 10.0468 25.5772 10.6629 25.9096C10.6632 25.9085 10.6635 25.9075 10.6638 25.9064C12.2516 26.7635 14.069 27.25 16 27.25C17.9296 27.25 19.7456 26.7642 21.3327 25.9083C21.3326 25.9082 21.3327 25.9084 21.3327 25.9083C21.4845 25.8263 21.6343 25.7412 21.7818 25.6525ZM22.1277 22.9293C24.0427 21.2346 25.25 18.7583 25.25 16C25.25 10.8914 21.1086 6.75 16 6.75C10.8914 6.75 6.75 10.8914 6.75 16C6.75 18.7571 7.95624 21.2324 9.86976 22.9271C11.2279 21.0062 13.4665 19.752 15.998 19.752C18.5304 19.752 20.7697 21.0071 22.1277 22.9293ZM20.4958 24.0859C19.5002 22.6741 17.8568 21.752 15.998 21.752C14.1398 21.752 12.4969 22.6734 11.5012 24.0842C12.8329 24.8269 14.367 25.25 16 25.25C17.6318 25.25 19.1649 24.8275 20.4958 24.0859Z"
		fill="#141414" />
</svg>